<?xml version="1.0" encoding="utf-8"?>
<!-- Generator: Adobe Illustrator 26.1.0, SVG Export Plug-In . SVG Version: 6.00 Build 0)  -->
<svg version="1.1" id="Layer_1" xmlns="http://www.w3.org/2000/svg" xmlns:xlink="http://www.w3.org/1999/xlink" x="0px" y="0px"
	 viewBox="0 0 72 56" style="enable-background:new 0 0 72 56;" xml:space="preserve">
<style type="text/css">
	.st0{fill:#FFFFFF;}
</style>
<rect width="72" height="56"/>
<path class="st0" d="M36.1,4c-6.5,0-7.3,0-9.9,0.1c-2,0-4,0.4-5.8,1.1c-1.6,0.6-3.1,1.5-4.2,2.8c-1.2,1.2-2.2,2.6-2.8,4.2
	c-0.7,1.9-1.1,3.8-1.1,5.8c-0.1,2.7-0.2,3.5-0.2,10s0,7.3,0.1,9.9c0,2,0.4,4,1.1,5.8c0.6,1.6,1.5,3.1,2.8,4.2
	c1.2,1.2,2.6,2.2,4.2,2.8c1.9,0.7,3.8,1.1,5.8,1.1C28.7,52,29.5,52,36,52s7.3,0,9.9-0.1c2,0,4-0.4,5.8-1.1c1.6-0.6,3.1-1.5,4.2-2.8
	c1.2-1.2,2.2-2.6,2.8-4.2c0.7-1.9,1.1-3.8,1.1-5.8c0.1-2.6,0.1-3.4,0.1-9.9s0-7.3-0.1-9.9c0-2-0.4-4-1.1-5.8
	c-0.6-1.6-1.5-3.1-2.8-4.2c-1.2-1.2-2.6-2.2-4.2-2.8c-1.9-0.7-3.8-1.1-5.8-1.1C43.4,4.1,42.6,4,36.1,4z M36.1,8.4
	c6.4,0,7.2,0,9.7,0.1c1.5,0,3,0.3,4.4,0.8c1,0.4,2,1,2.8,1.8c0.8,0.8,1.4,1.7,1.8,2.8c0.5,1.4,0.8,2.9,0.8,4.4
	c0.1,2.5,0.1,3.3,0.1,9.7s0,7.2-0.1,9.7c0,1.5-0.3,3-0.8,4.4c-0.4,1-1,2-1.8,2.8c-0.8,0.8-1.7,1.4-2.8,1.8c-1.4,0.5-2.9,0.8-4.4,0.8
	c-2.5,0.1-3.3,0.1-9.7,0.1s-7.2,0-9.7-0.1c-1.5,0-3-0.3-4.4-0.8c-1-0.4-2-1-2.8-1.8c-0.8-0.8-1.4-1.7-1.8-2.8
	c-0.5-1.4-0.8-2.9-0.8-4.4c-0.1-2.5-0.1-3.3-0.1-9.7s0-7.2,0.1-9.7c0-1.5,0.3-3,0.8-4.4c0.4-1,1-2,1.8-2.8c0.8-0.8,1.7-1.4,2.8-1.8
	c1.4-0.5,2.9-0.8,4.4-0.8C28.9,8.4,29.7,8.4,36.1,8.4"/>
<path class="st0" d="M36,36c-4.4,0-8-3.6-8-8s3.6-8,8-8s8,3.6,8,8S40.4,36,36,36z M36,15.7c-6.8,0-12.3,5.5-12.3,12.3
	S29.2,40.3,36,40.3S48.3,34.8,48.3,28c0,0,0,0,0,0l0,0C48.3,21.2,42.8,15.7,36,15.7C36,15.7,36,15.7,36,15.7z"/>
<path class="st0" d="M51.7,15.2c0,1.6-1.3,2.9-2.9,2.9c-1.6,0-2.9-1.3-2.9-2.9s1.3-2.9,2.9-2.9C50.4,12.3,51.7,13.6,51.7,15.2
	C51.7,15.2,51.7,15.2,51.7,15.2z"/>
</svg>
