<?xml version="1.0" encoding="utf-8"?>
<!-- Generator: Adobe Illustrator 26.1.0, SVG Export Plug-In . SVG Version: 6.00 Build 0)  -->
<svg version="1.1" id="Layer_1" xmlns="http://www.w3.org/2000/svg" xmlns:xlink="http://www.w3.org/1999/xlink" x="0px" y="0px"
	 viewBox="0 0 72 56" style="enable-background:new 0 0 72 56;" xml:space="preserve">
<style type="text/css">
	.st0{fill:#FFFFFF;}
</style>
<rect width="72" height="56"/>
<g id="PRIMARY_-_GHOST">
	<path class="st0" d="M60.2,39.2c-0.3-0.8-0.9-1.5-1.7-1.8l-0.4-0.2l-0.7-0.3c-2.1-1.1-4-2.6-5.3-4.6c-0.4-0.5-0.7-1-0.9-1.6
		c-0.1-0.2-0.1-0.4,0-0.6c0.1-0.1,0.2-0.2,0.3-0.3l1.1-0.7l1.2-0.8c0.8-0.5,1.5-1.3,2-2.1c0.6-1.1,0.7-2.4,0.2-3.5
		c-0.6-1.7-2.3-2.7-4-2.7c-0.4,0-0.8,0-1.2,0.1l-0.3,0.1c0-1.2,0-2.4-0.1-3.5C50,12.2,47.6,8.2,43.7,6c-4.8-2.6-10.5-2.6-15.3,0
		c-1.3,0.7-2.4,1.6-3.3,2.7c-2,2.2-3.1,5-3.3,7.9c-0.1,1.2-0.1,2.4-0.1,3.5l-0.3-0.1C21,20,20.6,20,20.2,20c-1.8-0.1-3.4,1-4,2.7
		c-0.4,1.2-0.4,2.4,0.2,3.5c0.5,0.8,1.2,1.6,2,2.1l1.2,0.8l1,0.7c0.1,0.1,0.3,0.2,0.3,0.3c0.1,0.2,0.1,0.5,0,0.7
		c-0.2,0.6-0.5,1.1-0.9,1.6c-1.3,1.9-3.1,3.4-5.2,4.5c-1.2,0.6-2.4,1-2.9,2.4c-0.4,1.2-0.1,2.4,0.8,3.3l0,0c0.4,0.4,0.8,0.7,1.2,0.9
		c1,0.5,2,0.9,3,1.2c0.2,0.1,0.4,0.1,0.6,0.3c0.4,0.3,0.3,0.8,0.8,1.5c0.2,0.4,0.5,0.7,0.9,0.9c1,0.6,2.2,0.9,3.3,0.8
		c1.3,0,2.5,0.2,3.7,0.6c0.7,0.3,1.3,0.6,1.9,1c4.7,3.3,11,3.3,15.7,0c0.6-0.4,1.2-0.7,1.8-1c1.2-0.4,2.5-0.5,3.7-0.6
		c1.2,0.1,2.3-0.2,3.3-0.8c0.4-0.3,0.8-0.7,1-1.2c0.4-0.6,0.3-1,0.7-1.3c0.2-0.1,0.4-0.2,0.6-0.3c1.1-0.3,2.1-0.7,3.1-1.2
		c0.5-0.3,0.9-0.6,1.3-1l0,0C60.4,41.6,60.6,40.3,60.2,39.2z M56.8,41.1c-2.1,1.2-3.5,1-4.6,1.7c-1,0.7-0.4,1.9-1,2.4
		c-0.7,0.5-3.2,0-6.4,1c-2.6,0.8-4.2,3.3-8.8,3.3s-6.2-2.4-8.9-3.3c-3.1-1-5.5-0.4-6.3-1s-0.1-1.7-1-2.4c-1.1-0.7-2.5-0.6-4.6-1.7
		c-1.3-0.7-0.6-1.2-0.1-1.4c7.5-3.7,8.8-9.3,8.8-9.7c0.2-0.5,0-1.1-0.4-1.4c-0.5-0.5-2.9-2-3.6-2.4c-1.1-0.8-1.6-1.5-1.2-2.5
		c0.3-0.6,0.9-1,1.5-0.9c0.2,0,0.4,0,0.6,0c1.2,0.3,2.4,0.9,3.1,1c0.1,0,0.2,0,0.2,0c0.4,0,0.5-0.2,0.5-0.6c-0.1-2.1-0.1-4.2,0-6.3
		c0.1-2.4,1-4.6,2.6-6.4C29.4,8,32.7,6.7,36,6.8c3.4-0.1,6.6,1.2,8.9,3.7c1.6,1.7,2.5,4,2.6,6.4c0.2,2.1,0.2,4.2,0,6.3
		c0,0.4,0.1,0.6,0.5,0.6c0.1,0,0.2,0,0.2,0c0.7-0.2,1.8-0.8,3.1-1c0.2,0,0.4-0.1,0.6-0.1c0.6-0.1,1.2,0.3,1.5,0.9
		c0.4,1-0.1,1.7-1.2,2.5c-0.7,0.5-3.1,1.9-3.6,2.4c-0.4,0.3-0.6,0.9-0.4,1.4c0,0.4,1.3,6.1,8.8,9.7C57.4,39.9,58.1,40.3,56.8,41.1z"
		/>
</g>
</svg>
