<?xml version="1.0" encoding="utf-8"?>
<!-- Generator: Adobe Illustrator 26.1.0, SVG Export Plug-In . SVG Version: 6.00 Build 0)  -->
<svg version="1.1" id="Layer_1" xmlns="http://www.w3.org/2000/svg" xmlns:xlink="http://www.w3.org/1999/xlink" x="0px" y="0px"
	 viewBox="0 0 72 56" style="enable-background:new 0 0 72 56;" xml:space="preserve">
<style type="text/css">
	.st0{fill:#FFFFFF;}
</style>
<rect width="72" height="56"/>
<g id="Twitter">
	<path class="st0" d="M65.4,9.8c-1.7,2.4-3.7,4.5-6.1,6.1v1.7c0,8.6-3.2,16.8-8.8,23.2C44.1,48.1,34.7,52.3,25,52
		c-6.5,0-12.9-1.8-18.4-5.3h2.9c5.4,0,10.7-1.9,15-5.3c-2.5,0.1-5-0.8-7-2.4c-2-1.5-3.5-3.5-4.2-5.9c0.7,0,1.4,0.1,2.1,0.2
		c1.1,0,2.1,0,3.2-0.2c-5.5-1.3-9.4-6.3-9.3-12v-0.2c1.7,0.8,3.5,1.4,5.3,1.7c-3.4-2.2-5.4-6.1-5.3-10.1c0-2.2,0.6-4.3,1.7-6.1
		c5.9,7.7,15,12.3,24.8,12.5c-0.2-0.9-0.3-1.8-0.2-2.7C35.5,9.5,40.7,4.1,47.3,4h0.2c3.4-0.1,6.6,1.3,8.8,3.8
		c2.7-0.6,5.3-1.6,7.8-2.9c-0.8,2.9-2.7,5.3-5.3,6.7C61.1,11.3,63.3,10.7,65.4,9.8z"/>
</g>
</svg>
