<?xml version="1.0" encoding="utf-8"?>
<!-- Generator: Adobe Illustrator 26.1.0, SVG Export Plug-In . SVG Version: 6.00 Build 0)  -->
<svg version="1.1" id="Layer_1" xmlns="http://www.w3.org/2000/svg" xmlns:xlink="http://www.w3.org/1999/xlink" x="0px" y="0px"
	 viewBox="0 0 108 92" style="enable-background:new 0 0 108 92;" xml:space="preserve">
<style type="text/css">
	.st0{fill:#FFFFFF;}
</style>
<rect width="108" height="92"/>
<path class="st0" d="M104.8,20.5c-1.2-4.6-4.8-8.2-9.4-9.4C87.1,8.9,54,8.9,54,8.9s-33.1,0-41.4,2.2c-4.6,1.2-8.2,4.8-9.4,9.4
	C1,28.8,1,46,1,46s0,17.2,2.2,25.5c1.2,4.6,4.8,8.2,9.4,9.4c8.3,2.2,41.4,2.2,41.4,2.2s33.1,0,41.4-2.2c4.6-1.2,8.2-4.8,9.4-9.4
	C107,63.2,107,46,107,46S107,28.8,104.8,20.5z M43.4,61.9V30.1L70.9,46L43.4,61.9z"/>
</svg>
